<svg xmlns="http://www.w3.org/2000/svg" xmlns:xlink="http://www.w3.org/1999/xlink" version="1.1" width="595.276pt" height="841.89pt" viewBox="0 0 595.276 841.89">
<defs>
<clipPath id="clip_0">
<path transform="matrix(1,0,0,-1,0,841.89)" d="M0 841.89H595.276V0H0Z"/>
</clipPath>
</defs>
<g id="layer_1" data-name="Layer 1">
<g clip-path="url(#clip_0)">
<path transform="matrix(1,0,0,-1,270.0292,429.2748)" d="M0 0C0 2.374-.199 4.223-.596 5.537-.993 6.851-1.64 7.788-2.537 8.354-3.433 8.919-4.696 9.199-6.321 9.199-7.87 9.199-9.067 8.919-9.923 8.354-10.778 7.788-11.395 6.851-11.772 5.537-12.143 4.223-12.332 2.374-12.332 0V-12.021C-12.332-14.4-12.143-16.244-11.772-17.558-11.395-18.872-10.778-19.815-9.923-20.375-9.067-20.94-7.87-21.221-6.321-21.221-4.696-21.221-3.433-20.94-2.537-20.375-1.64-19.815-.993-18.872-.596-17.558-.199-16.244 0-14.4 0-12.021ZM26.289 12.953C28.622 10.157 29.793 6.067 29.793 .688V-10.33C29.793-17.13 28.688-23.182 26.472-28.484H17.334C19.341-22.764 20.339-16.713 20.339-10.33V.621C20.339 3.754 19.932 5.965 19.122 7.259 18.307 8.552 16.916 9.199 14.955 9.199 12.953 9.199 11.537 8.542 10.702 7.228 9.867 5.914 9.449 3.713 9.449 .621V-12.082C9.449-17.757 8.125-22.025 5.476-24.883 2.822-27.741-1.11-29.172-6.321-29.172-11.456-29.172-15.337-27.73-17.966-24.852-20.594-21.974-21.908-17.716-21.908-12.082V.061C-21.908 5.649-20.635 9.897-18.093 12.795-15.546 15.699-11.833 17.146-6.948 17.146-3.988 17.146-1.528 16.585 .438 15.46 2.399 14.329 3.774 12.683 4.569 10.513 5.695 12.806 7.187 14.487 9.041 15.551 10.901 16.616 13.244 17.146 16.086 17.146 20.548 17.146 23.951 15.75 26.289 12.953" fill="#6d6e71"/>
<path transform="matrix(1,0,0,-1,335.8403,416.4436)" d="M0 0C2.654-2.883 3.978-7.136 3.978-12.77V-23.161C3.978-29.961 2.873-36.013 .657-41.315H-8.603C-6.602-35.595-5.598-29.544-5.598-23.161V-12.831C-5.598-10.457-5.786-8.608-6.163-7.294-6.54-5.98-7.157-5.043-8.007-4.477-8.863-3.912-10.065-3.632-11.609-3.632-13.152-3.632-14.354-3.912-15.21-4.477-16.066-5.043-16.677-5.98-17.054-7.294-17.431-8.608-17.619-10.457-17.619-12.831V-23.1C-17.619-29.442-16.616-35.514-14.614-41.315H-23.874C-26.09-35.89-27.195-29.859-27.195-23.222V-12.77C-27.195-7.136-25.881-2.883-23.253 0-20.619 2.878-16.743 4.314-11.609 4.314-6.52 4.314-2.649 2.878 0 0" fill="#6d6e71"/>
<path transform="matrix(1,0,0,-1,367.7628,449.0538)" d="M0 0C.983 1.126 1.472 2.919 1.472 5.379 1.472 7.844 .983 9.637 0 10.763-.978 11.889-2.557 12.454-4.722 12.454-6.81 12.454-8.333 11.889-9.296 10.763-10.254 9.637-10.733 7.844-10.733 5.379-10.733 2.919-10.243 1.126-9.26 0-8.282-1.131-6.749-1.691-4.661-1.691-2.532-1.691-.978-1.131 0 0M11.048 5.318C11.048-4.488 5.812-9.393-4.661-9.393-15.093-9.393-20.309-4.488-20.309 5.318-20.309 13.911-16.346 18.776-8.415 19.901V22.407C-8.415 23.365-8.68 24.17-9.199 24.817-9.724 25.464-10.631 26.33-11.924 27.414-12.76 28.123-13.371 28.703-13.768 29.167-14.166 29.625-14.502 30.242-14.772 31.011-15.042 31.785-15.179 32.814-15.179 34.108V36.237H-5.476V35.238C-5.476 34.362-5.257 33.639-4.819 33.079-4.381 32.513-3.622 31.795-2.532 30.919-1.243 29.916-.301 28.902 .285 27.883 .866 26.859 1.161 25.515 1.161 23.844V19.524C7.753 17.899 11.048 13.162 11.048 5.318" fill="#6d6e71"/>
<path transform="matrix(1,0,0,-1,413.9579,416.4436)" d="M0 0C2.649-2.883 3.973-7.136 3.973-12.77V-23.161C3.973-29.961 2.868-36.013 .657-41.315H-8.608C-6.601-35.595-5.603-29.544-5.603-23.161V-12.831C-5.603-10.457-5.792-8.608-6.163-7.294-6.54-5.98-7.157-5.043-8.012-4.477-8.868-3.912-10.07-3.632-11.614-3.632-13.157-3.632-14.354-3.912-15.21-4.477-16.066-5.043-16.682-5.98-17.059-7.294-17.431-8.608-17.619-10.457-17.619-12.831V-23.1C-17.619-29.442-16.621-35.514-14.614-41.315H-23.879C-26.09-35.89-27.195-29.859-27.195-23.222V-12.77C-27.195-7.136-25.881-2.883-23.253 0-20.625 2.878-16.743 4.314-11.614 4.314-6.52 4.314-2.649 2.878 0 0" fill="#6d6e71"/>
<path transform="matrix(1,0,0,-1,426.7585,412.81694)" d="M0 0H9.576V-30.792C9.576-33.298 10.096-35.111 11.14-36.237 12.184-37.368 13.87-37.928 16.208-37.928 18.546-37.928 20.237-37.378 21.282-36.273 22.321-35.167 22.845-33.359 22.845-30.858 22.845-29.814 22.688-28.856 22.377-27.975 22.061-27.099 21.592-26.039 20.966-24.786 20.217-23.283 19.662-21.979 19.31-20.874 18.954-19.769 18.776-18.485 18.776-17.023V-16.086H28.352C28.393-17.293 28.571-18.378 28.887-19.341 29.197-20.299 29.686-21.511 30.354-22.968 31.067-24.638 31.586-26.004 31.922-27.068 32.254-28.133 32.422-29.416 32.422-30.919 32.422-40.724 27.017-45.63 16.208-45.63 5.404-45.63 0-40.704 0-30.858Z" fill="#6d6e71"/>
<path transform="matrix(1,0,0,-1,493.95,416.4436)" d="M0 0C2.649-2.883 3.973-7.136 3.973-12.77V-23.161C3.973-29.961 2.868-36.013 .657-41.315H-8.608C-6.602-35.595-5.603-29.544-5.603-23.161V-12.831C-5.603-10.457-5.792-8.608-6.163-7.294-6.54-5.98-7.157-5.043-8.012-4.477-8.868-3.912-10.07-3.632-11.614-3.632-13.157-3.632-14.354-3.912-15.21-4.477-16.066-5.043-16.682-5.98-17.059-7.294-17.431-8.608-17.619-10.457-17.619-12.831V-23.1C-17.619-29.442-16.621-35.514-14.614-41.315H-23.879C-26.09-35.89-27.195-29.859-27.195-23.222V-12.77C-27.195-7.136-25.881-2.883-23.253 0-20.625 2.878-16.743 4.314-11.614 4.314-6.52 4.314-2.649 2.878 0 0" fill="#6d6e71"/>
<path transform="matrix(1,0,0,-1,154.6763,427.1451)" d="M0 0C.525-5.444 .8-8.277-3.617-12.936-8.183-17.749-19.694-26.672-31.476-33.475-36.424-36.332-43.13-39.795-48.217-41.644-51.988-43.005-55.159-43.578-56.735-40.849-57.751-39.089-57.254-37.476-56.72-36.046-52.623-24.941-40.819-4.218-33.131 9.266-32.345 10.645-31.534 12.055-30.704 13.488-18.87 33.915-3.17 58.921-.083 62.929 .364 63.509 1.171 64.187 1.926 63.749 2.536 63.396 2.541 62.659 2.457 62.16 2.442 62.07 2.259 61.338 2.188 61.05-2.899 40.405-2.352 20.173 0 0" fill="#00aeef"/>
<path transform="matrix(1,0,0,-1,171.9676,433.50373)" d="M0 0C-4.977 2.268-7.568 3.446-9.394 9.6-11.279 15.961-13.252 30.391-13.252 43.997-13.252 49.71-12.899 57.249-11.956 62.579-11.25 66.525-10.16 69.558-7.009 69.558-4.977 69.558-3.828 68.322-2.857 67.144 4.712 58.044 16.756 37.459 24.59 24.06 25.391 22.689 26.207 21.282 27.033 19.846 38.807-.616 52.612-26.715 54.54-31.393 54.819-32.07 55.002-33.108 54.246-33.543 53.634-33.894 52.994-33.53 52.604-33.208 52.534-33.15 51.991-32.626 51.777-32.42 36.441-17.692 18.646-8.05 0 0" fill="#00aeef"/>
<path transform="matrix(1,0,0,-1,157.8152,445.2991)" d="M0 0C4.452 3.176 6.768 4.832 13.011 3.335 19.462 1.787 32.946-3.719 44.728-10.522 49.676-13.378 56.028-17.454 60.173-20.935 63.237-23.52 65.319-25.98 63.744-28.709 62.728-30.469 61.082-30.845 59.576-31.098 47.912-33.103 24.062-33.241 8.541-33.325 6.954-33.334 5.327-33.337 3.671-33.334-19.937-33.3-49.442-32.206-54.457-31.536-55.183-31.439-56.173-31.079-56.171-30.207-56.17-29.501-55.535-29.129-55.061-28.953-54.975-28.921-54.25-28.713-53.965-28.63-33.543-22.713-16.294-12.123 0 0" fill="#00aeef"/>
</g>
</g>
</svg>
