<?xml version="1.0" encoding="UTF-8" standalone="no"?>
<svg
   xmlns:dc="http://purl.org/dc/elements/1.1/"
   xmlns:cc="http://creativecommons.org/ns#"
   xmlns:rdf="http://www.w3.org/1999/02/22-rdf-syntax-ns#"
   xmlns:svg="http://www.w3.org/2000/svg"
   xmlns="http://www.w3.org/2000/svg"
   viewBox="0 0 793.70135 1122.52"
   height="1122.52"
   width="793.70135"
   xml:space="preserve"
   id="svg2"
   version="1.1"><metadata
     id="metadata8"><rdf:RDF><cc:Work
         rdf:about=""><dc:format>image/svg+xml</dc:format><dc:type
           rdf:resource="http://purl.org/dc/dcmitype/StillImage" /></cc:Work></rdf:RDF></metadata><defs
     id="defs6"><clipPath
       id="clipPath18"
       clipPathUnits="userSpaceOnUse"><path
         id="path16"
         d="M 0,841.89 H 595.276 V 0 H 0 Z" /></clipPath></defs><g
     transform="matrix(1.3333333,0,0,-1.3333333,0,1122.52)"
     id="g10"><g
       id="g12"><g
         clip-path="url(#clipPath18)"
         id="g14"><g
           transform="translate(270.0292,412.6152)"
           id="g20"><path
             id="path22"
             style="fill:#656263;fill-opacity:1;fill-rule:nonzero;stroke:none"
             d="M 0,0 C 0,2.374 -0.199,4.223 -0.596,5.537 -0.993,6.851 -1.64,7.788 -2.537,8.354 -3.433,8.919 -4.696,9.199 -6.321,9.199 -7.87,9.199 -9.067,8.919 -9.923,8.354 -10.778,7.788 -11.395,6.851 -11.772,5.537 -12.143,4.223 -12.332,2.374 -12.332,0 v -12.021 c 0,-2.379 0.189,-4.223 0.56,-5.537 0.377,-1.314 0.994,-2.257 1.849,-2.817 0.856,-0.565 2.053,-0.846 3.602,-0.846 1.625,0 2.888,0.281 3.784,0.846 0.897,0.56 1.544,1.503 1.941,2.817 C -0.199,-16.244 0,-14.4 0,-12.021 Z M 26.289,12.953 C 28.622,10.157 29.793,6.067 29.793,0.688 V -10.33 c 0,-6.8 -1.105,-12.852 -3.321,-18.154 h -9.138 c 2.007,5.72 3.005,11.771 3.005,18.154 V 0.621 c 0,3.133 -0.407,5.344 -1.217,6.638 -0.815,1.293 -2.206,1.94 -4.167,1.94 -2.002,0 -3.418,-0.657 -4.253,-1.971 C 9.867,5.914 9.449,3.713 9.449,0.621 v -12.703 c 0,-5.675 -1.324,-9.943 -3.973,-12.801 -2.654,-2.858 -6.586,-4.289 -11.797,-4.289 -5.135,0 -9.016,1.442 -11.645,4.32 -2.628,2.878 -3.942,7.136 -3.942,12.77 V 0.061 c 0,5.588 1.273,9.836 3.815,12.734 2.547,2.904 6.26,4.351 11.145,4.351 2.96,0 5.42,-0.561 7.386,-1.686 1.961,-1.131 3.336,-2.777 4.131,-4.947 1.126,2.293 2.618,3.974 4.472,5.038 1.86,1.065 4.203,1.595 7.045,1.595 4.462,0 7.865,-1.396 10.203,-4.193" /></g><g
           transform="translate(335.8403,425.4464)"
           id="g24"><path
             id="path26"
             style="fill:#656263;fill-opacity:1;fill-rule:nonzero;stroke:none"
             d="m 0,0 c 2.654,-2.883 3.978,-7.136 3.978,-12.77 v -10.391 c 0,-6.8 -1.105,-12.852 -3.321,-18.154 h -9.26 c 2.001,5.72 3.005,11.771 3.005,18.154 v 10.33 c 0,2.374 -0.188,4.223 -0.565,5.537 -0.377,1.314 -0.994,2.251 -1.844,2.817 -0.856,0.565 -2.058,0.845 -3.602,0.845 -1.543,0 -2.745,-0.28 -3.601,-0.845 -0.856,-0.566 -1.467,-1.503 -1.844,-2.817 -0.377,-1.314 -0.565,-3.163 -0.565,-5.537 V -23.1 c 0,-6.342 1.003,-12.414 3.005,-18.215 h -9.26 c -2.216,5.425 -3.321,11.456 -3.321,18.093 v 10.452 c 0,5.634 1.314,9.887 3.942,12.77 2.634,2.878 6.51,4.314 11.644,4.314 C -6.52,4.314 -2.649,2.878 0,0" /></g><g
           transform="translate(367.7628,392.8362)"
           id="g28"><path
             id="path30"
             style="fill:#656263;fill-opacity:1;fill-rule:nonzero;stroke:none"
             d="m 0,0 c 0.983,1.126 1.472,2.919 1.472,5.379 0,2.465 -0.489,4.258 -1.472,5.384 -0.978,1.126 -2.557,1.691 -4.722,1.691 -2.088,0 -3.611,-0.565 -4.574,-1.691 -0.958,-1.126 -1.437,-2.919 -1.437,-5.384 0,-2.46 0.49,-4.253 1.473,-5.379 0.978,-1.131 2.511,-1.691 4.599,-1.691 2.129,0 3.683,0.56 4.661,1.691 m 11.048,5.318 c 0,-9.806 -5.236,-14.711 -15.709,-14.711 -10.432,0 -15.648,4.905 -15.648,14.711 0,8.593 3.963,13.458 11.894,14.583 v 2.506 c 0,0.958 -0.265,1.763 -0.784,2.41 -0.525,0.647 -1.432,1.513 -2.725,2.597 -0.836,0.709 -1.447,1.289 -1.844,1.753 -0.398,0.458 -0.734,1.075 -1.004,1.844 -0.27,0.774 -0.407,1.803 -0.407,3.097 v 2.129 h 9.703 v -0.999 c 0,-0.876 0.219,-1.599 0.657,-2.159 0.438,-0.566 1.197,-1.284 2.287,-2.16 1.289,-1.003 2.231,-2.017 2.817,-3.036 0.581,-1.024 0.876,-2.368 0.876,-4.039 v -4.32 c 6.592,-1.625 9.887,-6.362 9.887,-14.206" /></g><g
           transform="translate(413.9579,425.4464)"
           id="g32"><path
             id="path34"
             style="fill:#656263;fill-opacity:1;fill-rule:nonzero;stroke:none"
             d="m 0,0 c 2.649,-2.883 3.973,-7.136 3.973,-12.77 v -10.391 c 0,-6.8 -1.105,-12.852 -3.316,-18.154 h -9.265 c 2.007,5.72 3.005,11.771 3.005,18.154 v 10.33 c 0,2.374 -0.189,4.223 -0.56,5.537 -0.377,1.314 -0.994,2.251 -1.849,2.817 -0.856,0.565 -2.058,0.845 -3.602,0.845 -1.543,0 -2.74,-0.28 -3.596,-0.845 -0.856,-0.566 -1.472,-1.503 -1.849,-2.817 -0.372,-1.314 -0.56,-3.163 -0.56,-5.537 V -23.1 c 0,-6.342 0.998,-12.414 3.005,-18.215 h -9.265 c -2.211,5.425 -3.316,11.456 -3.316,18.093 v 10.452 c 0,5.634 1.314,9.887 3.942,12.77 2.628,2.878 6.51,4.314 11.639,4.314 C -6.52,4.314 -2.649,2.878 0,0" /></g><g
           transform="translate(426.7585,429.0731)"
           id="g36"><path
             id="path38"
             style="fill:#656263;fill-opacity:1;fill-rule:nonzero;stroke:none"
             d="m 0,0 h 9.576 v -30.792 c 0,-2.506 0.52,-4.319 1.564,-5.445 1.044,-1.131 2.73,-1.691 5.068,-1.691 2.338,0 4.029,0.55 5.074,1.655 1.039,1.106 1.563,2.914 1.563,5.415 0,1.044 -0.157,2.002 -0.468,2.883 -0.316,0.876 -0.785,1.936 -1.411,3.189 -0.749,1.503 -1.304,2.807 -1.656,3.912 -0.356,1.105 -0.534,2.389 -0.534,3.851 v 0.937 h 9.576 c 0.041,-1.207 0.219,-2.292 0.535,-3.255 0.31,-0.958 0.799,-2.17 1.467,-3.627 0.713,-1.67 1.232,-3.036 1.568,-4.1 0.332,-1.065 0.5,-2.348 0.5,-3.851 0,-9.805 -5.405,-14.711 -16.214,-14.711 C 5.404,-45.63 0,-40.704 0,-30.858 Z" /></g><g
           transform="translate(493.95,425.4464)"
           id="g40"><path
             id="path42"
             style="fill:#656263;fill-opacity:1;fill-rule:nonzero;stroke:none"
             d="m 0,0 c 2.649,-2.883 3.973,-7.136 3.973,-12.77 v -10.391 c 0,-6.8 -1.105,-12.852 -3.316,-18.154 h -9.265 c 2.006,5.72 3.005,11.771 3.005,18.154 v 10.33 c 0,2.374 -0.189,4.223 -0.56,5.537 -0.377,1.314 -0.994,2.251 -1.849,2.817 -0.856,0.565 -2.058,0.845 -3.602,0.845 -1.543,0 -2.74,-0.28 -3.596,-0.845 -0.856,-0.566 -1.472,-1.503 -1.849,-2.817 -0.372,-1.314 -0.56,-3.163 -0.56,-5.537 V -23.1 c 0,-6.342 0.998,-12.414 3.005,-18.215 h -9.265 c -2.211,5.425 -3.316,11.456 -3.316,18.093 v 10.452 c 0,5.634 1.314,9.887 3.942,12.77 2.628,2.878 6.51,4.314 11.639,4.314 C -6.52,4.314 -2.649,2.878 0,0" /></g><g
           transform="translate(154.6763,414.7449)"
           id="g44"><path
             id="path46"
             style="fill:#00adef;fill-opacity:1;fill-rule:nonzero;stroke:none"
             d="m 0,0 c 0.525,-5.444 0.8,-8.277 -3.617,-12.936 -4.566,-4.813 -16.077,-13.736 -27.859,-20.539 -4.948,-2.857 -11.654,-6.32 -16.741,-8.169 -3.771,-1.361 -6.942,-1.934 -8.518,0.795 -1.016,1.76 -0.519,3.373 0.015,4.803 4.097,11.105 15.901,31.828 23.589,45.312 0.786,1.379 1.597,2.789 2.427,4.222 11.834,20.427 27.534,45.433 30.621,49.441 0.447,0.58 1.254,1.258 2.009,0.82 0.61,-0.353 0.615,-1.09 0.531,-1.589 C 2.442,62.07 2.259,61.338 2.188,61.05 -2.899,40.405 -2.352,20.173 0,0" /></g><g
           transform="translate(171.9676,408.3863)"
           id="g48"><path
             id="path50"
             style="fill:#00adef;fill-opacity:1;fill-rule:nonzero;stroke:none"
             d="m 0,0 c -4.977,2.268 -7.568,3.446 -9.394,9.6 -1.885,6.361 -3.858,20.791 -3.858,34.397 0,5.713 0.353,13.252 1.296,18.582 0.706,3.946 1.796,6.979 4.947,6.979 2.032,0 3.181,-1.236 4.152,-2.414 7.569,-9.1 19.613,-29.685 27.447,-43.084 0.801,-1.371 1.617,-2.778 2.443,-4.214 11.774,-20.462 25.579,-46.561 27.507,-51.239 0.279,-0.677 0.462,-1.715 -0.294,-2.15 -0.612,-0.351 -1.252,0.013 -1.642,0.335 -0.07,0.058 -0.613,0.582 -0.827,0.788 C 36.441,-17.692 18.646,-8.05 0,0" /></g><g
           transform="translate(157.8152,396.5909)"
           id="g52"><path
             id="path54"
             style="fill:#00adef;fill-opacity:1;fill-rule:nonzero;stroke:none"
             d="m 0,0 c 4.452,3.176 6.768,4.832 13.011,3.335 6.451,-1.548 19.935,-7.054 31.717,-13.857 4.948,-2.856 11.3,-6.932 15.445,-10.413 3.064,-2.585 5.146,-5.045 3.571,-7.774 -1.016,-1.76 -2.662,-2.136 -4.168,-2.389 -11.664,-2.005 -35.514,-2.143 -51.035,-2.227 -1.587,-0.009 -3.214,-0.012 -4.87,-0.009 -23.608,0.034 -53.113,1.128 -58.128,1.798 -0.726,0.097 -1.716,0.457 -1.714,1.329 10e-4,0.706 0.636,1.078 1.11,1.254 0.086,0.032 0.811,0.24 1.096,0.323 C -33.543,-22.713 -16.294,-12.123 0,0" /></g></g></g></g></svg>